<svg width="150" height="95" viewBox="0 0 150 95" fill="none" xmlns="http://www.w3.org/2000/svg">
<path d="M137.569 31.9439C137.569 28.9643 135.069 26.6084 132.083 26.6084V37.2794C135.069 37.2794 137.569 34.8542 137.569 31.9439Z" fill="white"/>
<path d="M90.4861 26.6084V37.2794C92.9861 37.2794 95.1389 35.4778 95.625 33.1219H111.667V30.4888H95.5555C94.9305 28.2714 92.9166 26.6084 90.4861 26.6084Z" fill="white"/>
<path d="M71.3889 41.5755C71.5278 41.5755 71.6667 41.5755 71.8056 41.5755C72.9861 41.5755 74.0972 41.9912 75 42.6842L85.4861 34.1612C85.2083 33.5376 85 32.7753 85 32.0131C85 29.0336 87.4306 26.6776 90.3472 26.6776V0H71.25V41.5755H71.3889Z" fill="white"/>
<path d="M87.0833 36.1707L76.5972 44.6244C76.9444 45.3173 77.0833 46.0795 77.0833 46.8417C77.0833 49.8213 74.6528 52.1772 71.7361 52.1772C68.8194 52.1772 71.4583 52.1772 71.3194 52.1772V41.5062C68.9583 41.7141 67.0833 43.3771 66.5278 45.5252H59.7917L43.1944 0H25.7639L0 70.6783H18.5417L20.5556 64.442C21.1806 64.6499 21.8056 64.7885 22.4306 64.7885C25.4167 64.7885 27.7778 62.3632 27.7778 59.453C27.7778 56.5427 27.6389 58.2057 27.4306 57.6513L37.5694 50.93C38.5417 51.9001 39.8611 52.5237 41.3889 52.5237C42.9167 52.5237 43.2639 52.2465 44.0972 51.8308L50.2778 70.6783H68.9583L60.7639 48.1583H66.5278C67.0833 50.3756 68.9583 51.9694 71.3194 52.1772V70.609H90.4167V37.2101C89.1667 37.2101 88.0555 36.7943 87.1528 36.0321L87.0833 36.1707ZM20.3472 64.3727C18.4028 63.5412 17.0833 61.6703 17.0833 59.453C17.0833 57.2356 19.5139 54.1174 22.4306 54.1174C25.3472 54.1174 23.4028 54.1867 23.8194 54.3253L20.3472 64.3727ZM36.0417 47.2575C36.0417 47.8118 36.1111 48.2969 36.25 48.7819L25.9722 55.5726C25.3472 55.0182 24.6528 54.6025 23.8194 54.3946L34.375 22.3815L40.8333 41.9912C38.125 42.2684 36.0417 44.5551 36.0417 47.3268V47.2575ZM46.6667 48.2276C46.3889 49.752 45.4167 51.0686 44.0972 51.9001L40.9028 41.9912C41.1111 41.9912 41.25 41.9912 41.4583 41.9912C43.8194 41.9912 45.8333 43.585 46.5278 45.733H59.8611L60.7639 48.3662H46.7361L46.6667 48.2276Z" fill="white"/>
<path d="M150 16.1451V0H93.75V16.1451H111.667V30.4887H127.083C127.708 28.2713 129.722 26.6776 132.083 26.6083V16.1451H150Z" fill="white"/>
<path d="M127.014 33.1221H111.667V70.6786H132.083V37.2796C129.583 37.2796 127.5 35.478 127.014 33.1221Z" fill="white"/>
<path d="M65.2083 94.7917C64.3056 94.7917 63.6111 94.6532 62.9861 94.3067C62.3611 93.9602 61.9444 93.6138 61.6667 93.1287C61.3889 92.6437 61.25 92.0893 61.25 91.4657C61.25 90.8421 61.4583 90.1491 61.8056 89.6641C62.1528 89.179 62.7083 88.7633 63.4028 88.4861C64.0972 88.209 64.9306 88.0704 65.9028 88.0704H68.75C68.75 87.4467 68.6806 86.8924 68.4722 86.4766C68.2639 86.0609 67.9861 85.7837 67.6389 85.5758C67.2917 85.368 66.8056 85.2294 66.25 85.2294C65.6944 85.2294 65.0694 85.368 64.5833 85.7144C64.0972 85.9916 63.8194 86.4766 63.75 87.1003H61.5972C61.6667 86.3381 61.9444 85.7144 62.3611 85.1601C62.7778 84.6058 63.3333 84.19 64.0278 83.9128C64.7222 83.6357 65.4167 83.4971 66.25 83.4971C67.0833 83.4971 68.125 83.7049 68.8194 84.0514C69.5139 84.3979 70 84.8829 70.3472 85.5758C70.6944 86.1995 70.9028 87.031 70.9028 87.9318V94.6532H69.0278L68.8889 92.8516C68.75 93.1287 68.5417 93.4059 68.3333 93.6831C68.125 93.9602 67.8472 94.1681 67.5694 94.376C67.2917 94.5839 66.9444 94.7225 66.5278 94.7917C66.1806 94.9303 65.6944 94.9303 65.2778 94.9303L65.2083 94.7917ZM65.625 93.0594C66.1111 93.0594 66.5278 92.9901 66.875 92.7823C67.2222 92.5744 67.5694 92.3665 67.8472 92.02C68.125 91.6736 68.3333 91.3271 68.4722 90.9114C68.6111 90.4956 68.6806 90.0799 68.6806 89.6641H66.1111C65.4861 89.6641 65 89.7334 64.5833 89.872C64.1667 90.0106 63.9583 90.2184 63.75 90.4956C63.6111 90.7728 63.4722 91.0499 63.4722 91.3964C63.4722 91.7429 63.5417 92.0893 63.75 92.2972C63.8889 92.5744 64.1667 92.713 64.4444 92.9209C64.7917 93.0594 65.1389 93.1287 65.5556 93.1287L65.625 93.0594Z" fill="white"/>
<path d="M73.9583 81.6956C73.5417 81.6956 73.1944 81.557 72.9167 81.2798C72.6389 81.0026 72.5 80.7255 72.5 80.3097C72.5 79.894 72.6389 79.6168 72.9167 79.3396C73.1944 79.0625 73.5417 78.9932 73.9583 78.9932C74.375 78.9932 74.7222 79.1317 75 79.3396C75.2778 79.5475 75.4167 79.894 75.4167 80.3097C75.4167 80.7255 75.2778 81.0719 75 81.2798C74.7222 81.557 74.375 81.6956 73.9583 81.6956ZM72.8472 94.5147V83.7051H75V94.5147H72.8472Z" fill="white"/>
<path d="M81.4583 94.515C80.7639 94.515 80.2083 94.3764 79.7222 94.1685C79.2361 93.9607 78.8194 93.6142 78.5417 93.1292C78.2639 92.6441 78.125 91.9512 78.125 91.1197V85.5763H76.25V83.7747H78.125L78.4028 81.0723H80.2778V83.7747H83.3333V85.5763H80.2778V91.1197C80.2778 91.7433 80.4167 92.1591 80.6944 92.3669C80.9722 92.5748 81.3889 92.7134 82.0139 92.7134H83.2639V94.515H81.4583Z" fill="white"/>
<path d="M84.6528 94.5147V79.0625H86.8056V85.4374C87.1528 84.8138 87.6389 84.3287 88.3334 83.9823C88.9584 83.6358 89.6528 83.4279 90.4167 83.4279C91.1806 83.4279 92.0139 83.6358 92.6389 83.9823C93.2639 84.3287 93.75 84.8831 94.0278 85.576C94.375 86.2689 94.5139 87.1697 94.5139 88.2091V94.584H92.3611V88.417C92.3611 87.3776 92.1528 86.6154 91.7362 86.1303C91.3195 85.576 90.6945 85.3681 89.7917 85.3681C88.8889 85.3681 88.6806 85.5067 88.2639 85.7839C87.7778 86.061 87.4306 86.4768 87.1528 86.9618C86.875 87.5162 86.7362 88.1398 86.7362 88.8327V94.584H84.5834L84.6528 94.5147Z" fill="white"/>
<path d="M97.6389 81.6956C97.2222 81.6956 96.875 81.557 96.5972 81.2798C96.3194 81.0026 96.1805 80.7255 96.1805 80.3097C96.1805 79.894 96.3194 79.6168 96.5972 79.3396C96.875 79.0625 97.2222 78.9932 97.6389 78.9932C98.0555 78.9932 98.4028 79.1317 98.6805 79.3396C98.9583 79.5475 99.0972 79.894 99.0972 80.3097C99.0972 80.7255 98.9583 81.0719 98.6805 81.2798C98.4028 81.557 98.0555 81.6956 97.6389 81.6956ZM96.5278 94.5147V83.7051H98.6805V94.5147H96.5278Z" fill="white"/>
<path d="M100.903 94.5146V83.7049H102.847L102.986 85.5758C103.333 84.9522 103.819 84.3979 104.444 84.0514C105.069 83.7049 105.833 83.4971 106.597 83.4971C107.361 83.4971 108.194 83.6357 108.819 83.9821C109.444 84.3286 109.931 84.8136 110.278 85.5066C110.625 86.1995 110.764 87.1003 110.764 88.1397V94.5146H108.611V88.3475C108.611 87.3774 108.403 86.6152 107.917 86.0609C107.5 85.5758 106.806 85.2987 105.972 85.2987C105.139 85.2987 104.931 85.4373 104.444 85.7144C104.028 85.9916 103.611 86.3381 103.403 86.8924C103.125 87.3775 102.986 88.0011 102.986 88.7633V94.5146H100.833H100.903Z" fill="white"/>
<path d="M112.708 94.5147V79.0625H114.861V94.5147H112.708ZM119.514 94.5147L114.514 88.6249L119.028 83.7051H121.597L116.25 89.4564V87.8626L122.222 94.584H119.514V94.5147Z" fill="white"/>
<path d="M127.222 94.7918C126.181 94.7918 125.278 94.5839 124.444 94.0989C123.611 93.6138 122.986 92.9902 122.569 92.1587C122.083 91.3272 121.875 90.3571 121.875 89.2484C121.875 88.1397 122.083 87.1003 122.569 86.2688C123.056 85.4373 123.681 84.7444 124.444 84.2593C125.278 83.7743 126.181 83.5664 127.222 83.5664C128.264 83.5664 129.167 83.7743 129.931 84.2593C130.694 84.7444 131.25 85.368 131.667 86.1302C132.083 86.8924 132.292 87.7932 132.292 88.6941C132.292 89.5949 132.292 88.9712 132.292 89.1791C132.292 89.3177 132.292 89.5256 132.292 89.7334H123.472V88.209H130.208C130.208 87.3082 129.861 86.6153 129.306 86.1302C128.75 85.6452 128.056 85.368 127.222 85.368C126.389 85.368 126.111 85.5066 125.625 85.7838C125.139 86.0609 124.722 86.4074 124.444 86.9617C124.167 87.4468 124.028 88.1397 124.028 88.9019V89.5256C124.028 90.3571 124.167 90.9807 124.444 91.535C124.722 92.0894 125.139 92.5051 125.625 92.7823C126.111 93.0595 126.667 93.1981 127.222 93.1981C127.778 93.1981 128.472 93.0595 128.889 92.713C129.306 92.4358 129.653 92.0201 129.861 91.4658H132.014C131.806 92.0894 131.528 92.713 131.042 93.2674C130.625 93.8217 130.069 94.1682 129.375 94.5146C128.75 94.7918 127.986 94.9997 127.153 94.9997L127.222 94.7918Z" fill="white"/>
<path d="M133.958 94.5145V83.7049H135.903L136.111 85.7144C136.389 85.2293 136.667 84.8136 137.083 84.4671C137.5 84.1207 137.917 83.8435 138.472 83.7049C139.028 83.497 139.583 83.4277 140.278 83.4277V85.7144H139.514C139.097 85.7144 138.681 85.7144 138.264 85.853C137.847 85.9916 137.5 86.1301 137.222 86.4073C136.944 86.6845 136.667 87.0309 136.528 87.4467C136.389 87.8625 136.25 88.4168 136.25 89.1097V94.5145H134.097H133.958Z" fill="white"/>
<path d="M145.486 94.7917C144.583 94.7917 143.75 94.6531 143.056 94.3067C142.361 93.9602 141.806 93.6137 141.389 93.0594C140.972 92.5051 140.764 91.8814 140.625 91.1192H142.847C142.917 91.4657 143.056 91.7428 143.264 92.0893C143.472 92.3665 143.75 92.5743 144.097 92.7822C144.444 92.9208 144.861 93.0594 145.417 93.0594C145.972 93.0594 146.25 93.0594 146.597 92.8515C146.944 92.6436 147.153 92.505 147.292 92.2972C147.431 92.0893 147.5 91.8121 147.5 91.535C147.5 91.1192 147.431 90.842 147.222 90.6342C147.014 90.4263 146.736 90.2877 146.389 90.1491C146.042 90.0105 145.556 89.9412 145 89.8026C144.514 89.7334 144.028 89.5948 143.542 89.4562C143.056 89.3176 142.639 89.1097 142.292 88.9018C141.944 88.694 141.667 88.4168 141.389 88.001C141.181 87.6546 141.042 87.2388 141.042 86.6845C141.042 86.1301 141.181 85.5065 141.528 85.0215C141.875 84.5364 142.292 84.1207 142.917 83.8435C143.542 83.5663 144.236 83.4277 145.069 83.4277C146.25 83.4277 147.222 83.7049 147.986 84.2592C148.75 84.8136 149.167 85.6451 149.306 86.6845H147.222C147.222 86.1994 146.944 85.853 146.597 85.5758C146.25 85.2986 145.764 85.16 145.139 85.16C144.514 85.16 144.028 85.2986 143.75 85.5065C143.403 85.7837 143.264 86.0608 143.264 86.4766C143.264 86.8924 143.333 86.9617 143.542 87.1695C143.75 87.3774 144.028 87.516 144.375 87.6546C144.722 87.7932 145.208 87.9317 145.694 88.001C146.458 88.1396 147.153 88.3475 147.708 88.5554C148.333 88.7633 148.819 89.1097 149.167 89.5255C149.514 89.9412 149.722 90.5649 149.722 91.3271C149.722 92.02 149.583 92.5743 149.236 93.1287C148.889 93.6137 148.403 94.0295 147.778 94.3067C147.153 94.5838 146.389 94.7224 145.486 94.7224V94.7917Z" fill="white"/>
</svg>
